<svg width="256" height="256" viewBox="0 0 256 256" fill="none" xmlns="http://www.w3.org/2000/svg">
  <defs>
    <linearGradient id="bg" x1="24" y1="20" x2="232" y2="236" gradientUnits="userSpaceOnUse">
      <stop stop-color="#C9232F"/>
      <stop offset="0.55" stop-color="#8C111C"/>
      <stop offset="1" stop-color="#5C0911"/>
    </linearGradient>
    <linearGradient id="metal" x1="61" y1="40" x2="196" y2="214" gradientUnits="userSpaceOnUse">
      <stop stop-color="#FFFFFF"/>
      <stop offset="0.48" stop-color="#F1F1F1"/>
      <stop offset="1" stop-color="#CFCFCF"/>
    </linearGradient>
    <linearGradient id="bevel" x1="61" y1="42" x2="194" y2="212" gradientUnits="userSpaceOnUse">
      <stop stop-color="#B6B6B6"/>
      <stop offset="1" stop-color="#7F7F7F"/>
    </linearGradient>
    <filter id="shadow" x="17" y="11" width="221" height="234" filterUnits="userSpaceOnUse" color-interpolation-filters="sRGB">
      <feFlood flood-opacity="0" result="BackgroundImageFix"/>
      <feColorMatrix in="SourceAlpha" type="matrix" values="0 0 0 0 0 0 0 0 0 0 0 0 0 0 0 0 0 0 127 0" result="hardAlpha"/>
      <feOffset dy="6"/>
      <feGaussianBlur stdDeviation="8"/>
      <feColorMatrix type="matrix" values="0 0 0 0 0.13 0 0 0 0 0.02 0 0 0 0 0.04 0 0 0 0.42 0"/>
      <feBlend mode="normal" in2="BackgroundImageFix" result="effect1_dropShadow_1_1"/>
      <feBlend mode="normal" in="SourceGraphic" in2="effect1_dropShadow_1_1" result="shape"/>
    </filter>
    <filter id="glow" x="27" y="21" width="201" height="204" filterUnits="userSpaceOnUse" color-interpolation-filters="sRGB">
      <feFlood flood-opacity="0" result="BackgroundImageFix"/>
      <feBlend mode="normal" in="SourceGraphic" in2="BackgroundImageFix" result="shape"/>
      <feGaussianBlur stdDeviation="3" result="effect1_foregroundBlur_1_1"/>
    </filter>
  </defs>

  <rect width="256" height="256" rx="28" fill="url(#bg)"/>
  <rect x="5" y="5" width="246" height="246" rx="23" stroke="rgba(255,255,255,0.14)"/>

  <g filter="url(#shadow)">
    <g filter="url(#glow)" opacity="0.42">
      <path d="M62 198V101C62 73.4 84.4 51 112 51C139.6 51 162 73.4 162 101C162 128.6 139.6 151 112 151H88" stroke="#FFF7F7" stroke-width="20" stroke-linecap="round" stroke-linejoin="round"/>
      <path d="M88 198V119H111.5C121.7 119 130 110.7 130 100.5C130 90.3 121.7 82 111.5 82H88" stroke="#FFF7F7" stroke-width="20" stroke-linecap="round" stroke-linejoin="round"/>
      <path d="M140 50H194L148 128L204 206H151L117 148L140 50Z" stroke="#FFF7F7" stroke-width="18" stroke-linecap="round" stroke-linejoin="round"/>
    </g>

    <path d="M62 198V101C62 73.4 84.4 51 112 51C139.6 51 162 73.4 162 101C162 128.6 139.6 151 112 151H88" stroke="url(#bevel)" stroke-width="24" stroke-linecap="round" stroke-linejoin="round"/>
    <path d="M62 198V101C62 73.4 84.4 51 112 51C139.6 51 162 73.4 162 101C162 128.6 139.6 151 112 151H88" stroke="url(#metal)" stroke-width="18" stroke-linecap="round" stroke-linejoin="round"/>

    <path d="M88 198V119H111.5C121.7 119 130 110.7 130 100.5C130 90.3 121.7 82 111.5 82H88" stroke="url(#bevel)" stroke-width="24" stroke-linecap="round" stroke-linejoin="round"/>
    <path d="M88 198V119H111.5C121.7 119 130 110.7 130 100.5C130 90.3 121.7 82 111.5 82H88" stroke="url(#metal)" stroke-width="18" stroke-linecap="round" stroke-linejoin="round"/>

    <path d="M142 48H192L150 126L205 208H155L119 149L142 48Z" stroke="url(#bevel)" stroke-width="24" stroke-linecap="round" stroke-linejoin="round"/>
    <path d="M142 48H192L150 126L205 208H155L119 149L142 48Z" stroke="url(#metal)" stroke-width="18" stroke-linecap="round" stroke-linejoin="round"/>
  </g>
</svg>
